<svg width="70" height="70" viewBox="0 0 70 70" fill="none" xmlns="http://www.w3.org/2000/svg">
<circle cx="35" cy="35" r="35" fill="#D1FBB7"/>
<g clip-path="url(#clip0)">
<path d="M40.3935 45.5068C37.9233 45.5068 35.4575 45.5068 32.9873 45.5024C32.8071 45.5024 32.6796 45.5426 32.5566 45.6944C31.4401 47.0519 30.3149 48.396 29.1941 49.7446C28.3414 50.7717 27.4887 51.7988 26.636 52.8258C26.5218 52.9598 26.3811 53.0357 26.2097 52.9777C26.0207 52.9152 25.8712 52.799 25.8537 52.5758C25.8493 52.4954 25.8493 52.4105 25.8493 52.3302C25.8493 50.151 25.8449 47.9673 25.8537 45.7882C25.8537 45.5649 25.7965 45.5024 25.5724 45.5024C24.2098 45.5113 22.8472 45.5158 21.4847 45.5068C19.8804 45.4934 18.553 44.8281 17.4893 43.6358C16.6278 42.6712 16.1619 41.5147 16.0213 40.2241C15.9949 40.0232 15.9993 39.8222 15.9993 39.6213C15.9993 35.3567 15.9993 31.0921 15.9993 26.8275C15.9993 24.4474 17.4278 22.2861 19.5903 21.384C20.2188 21.125 20.8825 21.0045 21.5594 21.0045C30.1655 21 38.7716 20.9955 47.3821 21.0089C49.4742 21.0134 51.0566 22.0047 52.1466 23.8044C52.6784 24.6796 52.9553 25.6442 52.9685 26.6757C52.9861 28.0377 52.9949 29.3997 52.9949 30.7572C52.9993 33.6017 52.9949 36.4418 52.9949 39.2864C52.9949 40.1527 52.907 41.01 52.573 41.8138C51.7466 43.8278 50.3137 45.0915 48.1644 45.4532C47.9139 45.4934 47.6546 45.5024 47.3996 45.5024C45.0657 45.5113 42.7318 45.5068 40.3935 45.5068Z" fill="white"/>
</g>
<defs>
<clipPath id="clip0">
<rect x="16" y="21" width="37" height="32" fill="white"/>
</clipPath>
</defs>
</svg>
