<svg width="549" height="616" viewBox="0 0 549 616" fill="none" xmlns="http://www.w3.org/2000/svg">
<path d="M-1.2424e-07 406.592L0 403.742L32.8924 403.742L32.8924 406.592L-1.2424e-07 406.592Z" fill="#C6F3AA"/>
<path d="M0 449.394L32.8924 455.214L32.8924 458.108L-1.26133e-07 452.288L0 449.394Z" fill="#C6F3AA"/>
<path d="M0 494.811L32.8924 506.823L32.8924 509.855L-1.32191e-07 497.843L0 494.811Z" fill="#C6F3AA"/>
<path d="M0 539.745L32.8924 558.799L32.8924 562.09L-1.43444e-07 543.036L0 539.745Z" fill="#C6F3AA"/>
<path d="M-1.62126e-07 587.513L0 583.793L32.8924 611.485L32.8924 615.205L-1.62126e-07 587.513Z" fill="#C6F3AA"/>
<path d="M-1.24231e-07 358.454L0 355.604L32.8924 355.604L32.8924 358.454L-1.24231e-07 358.454Z" fill="#C6F3AA"/>
<path d="M-2.53711e-07 309.91L32.8924 304.09L32.8924 306.984L-3.79843e-07 312.804L-2.53711e-07 309.91Z" fill="black"/>
<path d="M-5.23657e-07 264.352L32.8924 252.339L32.8924 255.372L-6.55814e-07 267.383L-5.23657e-07 264.352Z" fill="black"/>
<path d="M-8.30608e-07 219.161L32.8924 200.108L32.8924 203.398L-9.74055e-07 222.452L-8.30608e-07 219.161Z" fill="black"/>
<path d="M-1.2072e-06 174.683L32.8924 146.99L32.8924 150.71L-1.36936e-06 178.403L-1.2072e-06 174.683Z" fill="black"/>
<path d="M0.791136 130.615L28.3911 97.6124L32.0986 97.6124L4.49855 130.615L0.791136 130.615Z" fill="black"/>
<path d="M5.30896 82.0284L24.2991 49.0265L27.5787 49.0265L8.58857 82.0284L5.30896 82.0284Z" fill="black"/>
<path d="M8.9519 33.4481L20.9235 0.445435L23.9457 0.445435L11.9742 33.4481L8.9519 33.4481Z" fill="black"/>
<path d="M51.603 358.007L51.603 355.157L84.4954 355.157L84.4954 358.007L51.603 358.007Z" fill="#C6F3AA"/>
<path d="M51.603 400.809L84.4954 406.628L84.4954 409.522L51.603 403.702L51.603 400.809Z" fill="#C6F3AA"/>
<path d="M51.603 446.228L84.4954 458.24L84.4954 461.272L51.603 449.26L51.603 446.228Z" fill="#C6F3AA"/>
<path d="M51.603 491.162L84.4954 510.215L84.4954 513.506L51.603 494.451L51.603 491.162Z" fill="#C6F3AA"/>
<path d="M51.603 538.929L51.603 535.209L84.4954 562.902L84.4954 566.622L51.603 538.929Z" fill="#C6F3AA"/>
<path d="M52.3943 582.996L56.1017 582.996L83.7017 615.999L79.9943 615.999L52.3943 582.996Z" fill="#C6F3AA"/>
<path d="M51.603 309.873L51.603 307.023L84.4954 307.023L84.4954 309.873L51.603 309.873Z" fill="black"/>
<path d="M51.603 261.327L84.4954 255.507L84.4954 258.4L51.603 264.22L51.603 261.327Z" fill="black"/>
<path d="M51.603 215.768L84.4954 203.757L84.4954 206.789L51.603 218.801L51.603 215.768Z" fill="black"/>
<path d="M51.603 170.581L84.4954 151.527L84.4954 154.818L51.603 173.871L51.603 170.581Z" fill="black"/>
<path d="M51.603 126.098L84.4954 98.4054L84.4954 102.125L51.603 129.817L51.603 126.098Z" fill="black"/>
<path d="M52.3943 82.0284L79.9943 49.0265L83.7017 49.0265L56.1017 82.0284L52.3943 82.0284Z" fill="black"/>
<path d="M56.9117 33.4482L75.9019 0.445557L79.1815 0.445558L60.1913 33.4482L56.9117 33.4482Z" fill="black"/>
<path d="M103.214 309.427L103.214 306.577L136.107 306.577L136.107 309.427L103.214 309.427Z" fill="black"/>
<path d="M103.214 352.225L136.107 358.045L136.107 360.939L103.214 355.119L103.214 352.225Z" fill="#C6F3AA"/>
<path d="M103.214 397.646L136.107 409.657L136.107 412.69L103.214 400.678L103.214 397.646Z" fill="#C6F3AA"/>
<path d="M103.214 442.58L136.107 461.634L136.107 464.924L103.214 445.87L103.214 442.58Z" fill="#C6F3AA"/>
<path d="M103.214 490.345L103.214 486.625L136.107 514.318L136.107 518.037L103.214 490.345Z" fill="#C6F3AA"/>
<path d="M104.006 534.414L107.713 534.414L135.313 567.417L131.606 567.417L104.006 534.414Z" fill="#C6F3AA"/>
<path d="M108.523 582.996L111.803 582.996L130.793 615.999L127.514 615.999L108.523 582.996Z" fill="#C6F3AA"/>
<path d="M103.214 261.288L103.214 258.438L136.107 258.438L136.107 261.288L103.214 261.288Z" fill="black"/>
<path d="M103.214 212.739L136.107 206.92L136.107 209.814L103.214 215.634L103.214 212.739Z" fill="black"/>
<path d="M103.214 167.189L136.107 155.177L136.107 158.209L103.214 170.221L103.214 167.189Z" fill="black"/>
<path d="M103.214 121.996L136.107 102.942L136.107 106.232L103.214 125.286L103.214 121.996Z" fill="black"/>
<path d="M103.214 77.5145L136.107 49.8228L136.107 53.5426L103.214 81.2344L103.214 77.5145Z" fill="black"/>
<path d="M104.006 33.4482L131.606 0.445558L135.313 0.445558L107.713 33.4482L104.006 33.4482Z" fill="black"/>
<path d="M154.826 260.842L154.826 257.992L187.718 257.992L187.718 260.842L154.826 260.842Z" fill="black"/>
<path d="M154.826 303.644L187.718 309.465L187.718 312.358L154.826 306.539L154.826 303.644Z" fill="black"/>
<path d="M154.826 349.062L187.718 361.073L187.718 364.106L154.826 352.094L154.826 349.062Z" fill="#C6F3AA"/>
<path d="M154.826 393.996L187.718 413.05L187.718 416.34L154.826 397.287L154.826 393.996Z" fill="#C6F3AA"/>
<path d="M154.826 441.764L154.826 438.044L187.718 465.736L187.718 469.456L154.826 441.764Z" fill="#C6F3AA"/>
<path d="M155.625 485.831L159.332 485.831L186.932 518.833L183.225 518.833L155.625 485.831Z" fill="#C6F3AA"/>
<path d="M160.143 534.414L163.423 534.414L182.413 567.417L179.133 567.417L160.143 534.414Z" fill="#C6F3AA"/>
<path d="M163.778 582.996L166.8 582.996L178.772 615.999L175.749 615.999L163.778 582.996Z" fill="#C6F3AA"/>
<path d="M154.826 212.703L154.826 209.853L187.718 209.853L187.718 212.703L154.826 212.703Z" fill="black"/>
<path d="M154.826 164.16L187.718 158.34L187.718 161.234L154.826 167.054L154.826 164.16Z" fill="black"/>
<path d="M154.826 118.603L187.718 106.591L187.718 109.623L154.826 121.636L154.826 118.603Z" fill="black"/>
<path d="M154.826 73.4116L187.718 54.3578L187.718 57.6476L154.826 76.7014L154.826 73.4116Z" fill="black"/>
<path d="M154.826 28.936L187.718 1.24414L187.718 4.96322L154.826 32.6558L154.826 28.936Z" fill="black"/>
<path d="M206.439 212.258L206.439 209.408L239.331 209.408L239.331 212.258L206.439 212.258Z" fill="black"/>
<path d="M206.439 255.059L239.331 260.88L239.331 263.773L206.439 257.953L206.439 255.059Z" fill="black"/>
<path d="M206.439 300.48L239.331 312.492L239.331 315.524L206.439 303.512L206.439 300.48Z" fill="black"/>
<path d="M206.439 345.411L239.331 364.464L239.331 367.755L206.439 348.701L206.439 345.411Z" fill="#C6F3AA"/>
<path d="M206.439 393.182L206.439 389.463L239.331 417.155L239.331 420.874L206.439 393.182Z" fill="#C6F3AA"/>
<path d="M207.229 437.25L210.937 437.25L238.537 470.252L234.829 470.252L207.229 437.25Z" fill="#C6F3AA"/>
<path d="M211.748 485.831L215.027 485.831L234.017 518.833L230.738 518.833L211.748 485.831Z" fill="#C6F3AA"/>
<path d="M215.39 534.414L218.412 534.414L230.384 567.417L227.362 567.417L215.39 534.414Z" fill="#C6F3AA"/>
<path d="M218.546 582.996L221.429 582.996L227.229 615.999L224.345 615.999L218.546 582.996Z" fill="#C6F3AA"/>
<path d="M206.439 164.122L206.439 161.273L239.331 161.273L239.331 164.122L206.439 164.122Z" fill="black"/>
<path d="M206.439 115.577L239.331 109.757L239.331 112.651L206.439 118.47L206.439 115.577Z" fill="black"/>
<path d="M206.439 70.0175L239.331 58.005L239.331 61.0374L206.439 73.0499L206.439 70.0175Z" fill="black"/>
<path d="M206.439 24.8308L239.331 5.77698L239.331 9.06758L206.439 28.1214L206.439 24.8308Z" fill="black"/>
<path d="M258.057 163.676L258.057 160.826L290.949 160.826L290.949 163.676L258.057 163.676Z" fill="black"/>
<path d="M258.057 206.476L290.949 212.295L290.949 215.189L258.057 209.369L258.057 206.476Z" fill="black"/>
<path d="M258.057 251.892L290.949 263.904L290.949 266.936L258.057 254.924L258.057 251.892Z" fill="black"/>
<path d="M258.057 296.83L290.949 315.884L290.949 319.175L258.057 300.12L258.057 296.83Z" fill="black"/>
<path d="M258.057 344.596L258.057 340.876L290.949 368.568L290.949 372.288L258.057 344.596Z" fill="black"/>
<path d="M258.848 388.664L262.556 388.664L290.156 421.666L286.448 421.666L258.848 388.664Z" fill="black"/>
<path d="M263.366 437.25L266.646 437.25L285.636 470.252L282.356 470.252L263.366 437.25Z" fill="black"/>
<path d="M267.009 485.831L270.031 485.831L282.003 518.833L278.98 518.833L267.009 485.831Z" fill="black"/>
<path d="M270.164 534.414L273.047 534.414L278.847 567.417L275.963 567.417L270.164 534.414Z" fill="black"/>
<path d="M273.083 615.999L273.083 582.996L275.923 582.996L275.923 615.999L273.083 615.999Z" fill="black"/>
<path d="M258.057 115.538L258.057 112.688L290.949 112.688L290.949 115.538L258.057 115.538Z" fill="black"/>
<path d="M258.057 66.9919L290.949 61.1719L290.949 64.0652L258.057 69.8852L258.057 66.9919Z" fill="black"/>
<path d="M258.057 21.4383L290.949 9.42664L290.949 12.4591L258.057 24.4708L258.057 21.4383Z" fill="black"/>
<path d="M309.669 115.094L309.669 112.244L342.562 112.244L342.562 115.094L309.669 115.094Z" fill="black"/>
<path d="M309.669 157.893L342.562 163.713L342.562 166.608L309.669 160.788L309.669 157.893Z" fill="black"/>
<path d="M309.669 203.311L342.562 215.323L342.562 218.355L309.669 206.344L309.669 203.311Z" fill="black"/>
<path d="M309.669 248.246L342.562 267.3L342.562 270.589L309.669 251.536L309.669 248.246Z" fill="black"/>
<path d="M309.669 296.014L309.669 292.294L342.562 319.987L342.562 323.706L309.669 296.014Z" fill="black"/>
<path d="M310.46 340.081L314.166 340.081L341.766 373.084L338.059 373.084L310.46 340.081Z" fill="black"/>
<path d="M314.978 388.664L318.258 388.664L337.248 421.666L333.969 421.666L314.978 388.664Z" fill="black"/>
<path d="M318.621 437.25L321.643 437.25L333.614 470.252L330.592 470.252L318.621 437.25Z" fill="black"/>
<path d="M321.776 485.831L324.66 485.831L330.46 518.833L327.575 518.833L321.776 485.831Z" fill="black"/>
<path d="M324.695 567.417L324.695 534.414L327.535 534.414L327.535 567.417L324.695 567.417Z" fill="black"/>
<path d="M309.669 66.9539L309.669 64.1041L342.562 64.1041L342.562 66.9539L309.669 66.9539Z" fill="black"/>
<path d="M309.669 18.41L342.562 12.5908L342.562 15.4842L309.669 21.3042L309.669 18.41Z" fill="black"/>
<path d="M321.776 615.999L327.575 582.996L330.46 582.996L324.66 615.999L321.776 615.999Z" fill="black"/>
<path d="M361.272 66.5108L361.272 63.661L394.164 63.661L394.164 66.5108L361.272 66.5108Z" fill="black"/>
<path d="M361.272 109.311L394.163 115.131L394.163 118.025L361.272 112.205L361.272 109.311Z" fill="black"/>
<path d="M361.272 154.729L394.163 166.741L394.163 169.774L361.272 157.762L361.272 154.729Z" fill="black"/>
<path d="M361.272 199.661L394.163 218.715L394.163 222.006L361.272 202.952L361.272 199.661Z" fill="black"/>
<path d="M361.272 247.43L361.272 243.711L394.163 271.402L394.163 275.122L361.272 247.43Z" fill="black"/>
<path d="M362.063 291.499L365.77 291.499L393.37 324.502L389.662 324.502L362.063 291.499Z" fill="black"/>
<path d="M366.581 340.081L369.86 340.081L388.85 373.084L385.572 373.084L366.581 340.081Z" fill="black"/>
<path d="M370.216 388.665L373.238 388.665L385.21 421.667L382.188 421.667L370.216 388.665Z" fill="black"/>
<path d="M373.379 437.25L376.262 437.25L382.062 470.252L379.178 470.252L373.379 437.25Z" fill="black"/>
<path d="M376.299 518.833L376.299 485.83L379.139 485.83L379.139 518.833L376.299 518.833Z" fill="black"/>
<path d="M361.272 18.372L361.272 15.5222L394.164 15.5222L394.164 18.372L361.272 18.372Z" fill="black"/>
<path d="M370.216 615.999L382.188 582.996L385.21 582.996L373.238 615.999L370.216 615.999Z" fill="black"/>
<path d="M373.379 567.416L379.178 534.413L382.062 534.413L376.262 567.416L373.379 567.416Z" fill="black"/>
<path d="M412.884 17.9272L412.884 15.0774L445.776 15.0774L445.776 17.9272L412.884 17.9272Z" fill="black"/>
<path d="M412.884 60.7285L445.775 66.5485L445.775 69.4418L412.884 63.6219L412.884 60.7285Z" fill="black"/>
<path d="M412.884 106.146L445.775 118.157L445.775 121.19L412.884 109.178L412.884 106.146Z" fill="black"/>
<path d="M412.884 151.08L445.775 170.133L445.775 173.424L412.884 154.37L412.884 151.08Z" fill="black"/>
<path d="M412.884 198.849L412.884 195.13L445.775 222.821L445.775 226.541L412.884 198.849Z" fill="black"/>
<path d="M413.675 242.914L417.382 242.914L444.982 275.916L441.274 275.916L413.675 242.914Z" fill="black"/>
<path d="M418.193 291.499L421.471 291.499L440.462 324.502L437.183 324.502L418.193 291.499Z" fill="black"/>
<path d="M421.827 340.081L424.849 340.081L436.821 373.084L433.799 373.084L421.827 340.081Z" fill="black"/>
<path d="M424.99 388.665L427.874 388.665L433.674 421.667L430.79 421.667L424.99 388.665Z" fill="black"/>
<path d="M427.91 470.252L427.91 437.25L430.75 437.25L430.75 470.252L427.91 470.252Z" fill="black"/>
<path d="M418.193 615.999L437.183 582.996L440.462 582.996L421.471 615.999L418.193 615.999Z" fill="black"/>
<path d="M421.827 567.416L433.799 534.413L436.821 534.413L424.849 567.416L421.827 567.416Z" fill="black"/>
<path d="M424.99 518.833L430.79 485.83L433.674 485.83L427.874 518.833L424.99 518.833Z" fill="black"/>
<path d="M464.487 12.1449L497.379 17.9641L497.379 20.8582L464.487 15.0383L464.487 12.1449Z" fill="black"/>
<path d="M464.487 57.5637L497.379 69.5754L497.379 72.6078L464.487 60.5954L464.487 57.5637Z" fill="black"/>
<path d="M464.487 102.497L497.379 121.55L497.379 124.841L464.487 105.786L464.487 102.497Z" fill="black"/>
<path d="M464.487 150.264L464.487 146.545L497.379 174.237L497.379 177.957L464.487 150.264Z" fill="black"/>
<path d="M465.278 194.329L468.985 194.329L496.584 227.332L492.877 227.332L465.278 194.329Z" fill="black"/>
<path d="M469.796 242.914L473.075 242.914L492.065 275.916L488.786 275.916L469.796 242.914Z" fill="black"/>
<path d="M473.431 291.5L476.453 291.5L488.425 324.502L485.403 324.502L473.431 291.5Z" fill="black"/>
<path d="M476.593 340.081L479.477 340.081L485.277 373.084L482.393 373.084L476.593 340.081Z" fill="black"/>
<path d="M479.513 421.667L479.513 388.664L482.353 388.664L482.353 421.667L479.513 421.667Z" fill="black"/>
<path d="M465.278 615.999L492.877 582.996L496.584 582.996L468.985 615.999L465.278 615.999Z" fill="black"/>
<path d="M469.796 567.417L488.786 534.414L492.065 534.414L473.075 567.417L469.796 567.417Z" fill="black"/>
<path d="M473.431 518.832L485.403 485.83L488.425 485.83L476.453 518.832L473.431 518.832Z" fill="black"/>
<path d="M476.593 470.252L482.393 437.25L485.277 437.25L479.477 470.252L476.593 470.252Z" fill="black"/>
<path d="M516.107 8.98108L548.999 20.9928L548.999 24.0252L516.107 12.0135L516.107 8.98108Z" fill="black"/>
<path d="M516.107 53.9154L548.999 72.9692L548.999 76.259L516.107 57.2052L516.107 53.9154Z" fill="black"/>
<path d="M516.107 101.68L516.107 97.9597L548.999 125.652L548.999 129.371L516.107 101.68Z" fill="black"/>
<path d="M516.898 145.749L520.606 145.749L548.205 178.751L544.498 178.751L516.898 145.749Z" fill="black"/>
<path d="M521.416 194.329L524.695 194.329L543.685 227.331L540.406 227.331L521.416 194.329Z" fill="black"/>
<path d="M525.051 242.914L528.073 242.914L540.045 275.916L537.023 275.916L525.051 242.914Z" fill="black"/>
<path d="M528.214 291.498L531.097 291.498L536.897 324.501L534.014 324.501L528.214 291.498Z" fill="black"/>
<path d="M531.133 373.083L531.133 340.081L533.973 340.081L533.973 373.083L531.133 373.083Z" fill="black"/>
<path d="M516.107 611.485L548.998 583.793L548.998 587.512L516.107 615.205L516.107 611.485Z" fill="black"/>
<path d="M516.898 567.417L544.498 534.414L548.205 534.414L520.606 567.417L516.898 567.417Z" fill="black"/>
<path d="M521.416 518.832L540.406 485.829L543.685 485.829L524.695 518.832L521.416 518.832Z" fill="black"/>
<path d="M525.051 470.252L537.023 437.25L540.045 437.25L528.073 470.252L525.051 470.252Z" fill="black"/>
<path d="M528.214 421.666L534.014 388.664L536.897 388.664L531.097 421.666L528.214 421.666Z" fill="black"/>
</svg>
