<svg width="708" height="748" viewBox="0 0 708 748" fill="none" xmlns="http://www.w3.org/2000/svg">
<path d="M0 686.009V681.369L41.1794 646.831V651.471L0 686.009Z" fill="#BADFA4"/>
<path d="M60.62 680.352V676.248L101.799 652.484V656.588L60.62 680.352Z" fill="#BADFA4"/>
<path d="M121.238 675.801V672.019L162.418 657.038V660.82L121.238 675.801Z" fill="#BADFA4"/>
<path d="M181.859 671.854V668.244L223.037 660.987V664.596L181.859 671.854Z" fill="#BADFA4"/>
<path d="M283.661 668.199H242.482V664.645H283.661V668.199Z" fill="#BADFA4"/>
<path d="M693.011 687L678.022 645.84H681.806L696.793 687H693.011Z" fill="white"/>
<path d="M636.624 687L612.849 645.84H616.955L640.73 687H636.624Z" fill="white"/>
<path d="M581.126 687L546.572 645.84H551.213L585.767 687H581.126Z" fill="white"/>
<path d="M526.14 686.009L484.96 651.471V646.831L526.14 681.369V686.009Z" fill="white"/>
<path d="M465.519 680.352L424.34 656.588V652.484L465.519 676.248V680.352Z" fill="#BADFA4"/>
<path d="M404.902 675.801L363.722 660.82V657.038L404.902 672.019V675.801Z" fill="#BADFA4"/>
<path d="M344.279 671.854L303.099 664.596V660.987L344.279 668.244V671.854Z" fill="#BADFA4"/>
<path d="M0 747.012V742.391L41.1794 707.988V712.609L0 747.012Z" fill="#BADFA4"/>
<path d="M60.62 741.377V737.289L101.799 713.618V717.706L60.62 741.377Z" fill="#BADFA4"/>
<path d="M121.238 736.845V733.077L162.418 718.155V721.922L121.238 736.845Z" fill="#BADFA4"/>
<path d="M181.859 732.912V729.317L223.037 722.089V725.683L181.859 732.912Z" fill="#BADFA4"/>
<path d="M283.661 729.271H242.482V725.732H283.661V729.271Z" fill="#BADFA4"/>
<path d="M693.011 748L678.022 707H681.806L696.793 748H693.011Z" fill="white"/>
<path d="M636.624 748L612.849 707H616.955L640.73 748H636.624Z" fill="white"/>
<path d="M581.126 748L546.572 707H551.213L585.767 748H581.126Z" fill="white"/>
<path d="M526.14 747.012L484.96 712.609V707.988L526.14 742.391V747.012Z" fill="white"/>
<path d="M465.519 741.377L424.34 717.706V713.618L465.519 737.289V741.377Z" fill="#BADFA4"/>
<path d="M404.902 736.845L363.722 721.922V718.155L404.902 733.077V736.845Z" fill="#BADFA4"/>
<path d="M344.279 732.912L303.099 725.683V722.089L344.279 729.317V732.912Z" fill="#BADFA4"/>
<path d="M0 615.767V611.663L41.1794 587.899V592.003L0 615.767Z" fill="#BADFA4"/>
<path d="M60.6201 611.215V607.433L101.799 592.452V596.234L60.6201 611.215Z" fill="#BADFA4"/>
<path d="M121.238 607.268V603.658L162.418 596.402V600.01L121.238 607.268Z" fill="#BADFA4"/>
<path d="M223.038 603.612H181.859V600.058H223.038V603.612Z" fill="#BADFA4"/>
<path d="M689.234 622.415L681.973 581.254H685.583L692.844 622.415H689.234Z" fill="white"/>
<path d="M632.391 622.415L617.403 581.254H621.187L636.175 622.415H632.391Z" fill="white"/>
<path d="M576.007 622.415L552.232 581.254H556.338L580.113 622.415H576.007Z" fill="white"/>
<path d="M520.506 622.415L485.952 581.254H490.594L525.146 622.415H520.506Z" fill="white"/>
<path d="M465.519 621.423L424.34 586.885V582.246L465.519 616.784V621.423Z" fill="#BADFA4"/>
<path d="M404.902 615.766L363.722 592.003V587.899L404.902 611.662V615.766Z" fill="#BADFA4"/>
<path d="M344.279 611.215L303.099 596.234V592.452L344.279 607.433V611.215Z" fill="#BADFA4"/>
<path d="M283.661 607.268L242.482 600.01V596.402L283.661 603.658V607.268Z" fill="#BADFA4"/>
<path d="M0 546.634V542.852L41.1794 527.871V531.653L0 546.634Z" fill="#BADFA4"/>
<path d="M60.6201 542.687V539.078L101.799 531.82V535.429L60.6201 542.687Z" fill="#BADFA4"/>
<path d="M162.418 539.031H121.238V535.478H162.418V539.031Z" fill="#BADFA4"/>
<path d="M689.189 557.834H685.633V516.673H689.189V557.834Z" fill="white"/>
<path d="M628.612 557.834L621.352 516.673H624.962L632.223 557.834H628.612Z" fill="white"/>
<path d="M571.773 557.834L556.785 516.673H560.569L575.557 557.834H571.773Z" fill="white"/>
<path d="M515.385 557.834L491.61 516.673H495.715L519.491 557.834H515.385Z" fill="white"/>
<path d="M459.884 557.834L425.331 516.673H429.973L464.525 557.834H459.884Z" fill="#BADFA4"/>
<path d="M404.902 556.843L363.722 522.305V517.665L404.902 552.203V556.843Z" fill="#BADFA4"/>
<path d="M344.279 551.189L303.099 527.426V523.322L344.279 547.085V551.189Z" fill="#BADFA4"/>
<path d="M283.661 546.634L242.482 531.653V527.871L283.661 542.852V546.634Z" fill="#BADFA4"/>
<path d="M223.037 542.687L181.859 535.429V531.82L223.037 539.078V542.687Z" fill="#BADFA4"/>
<path d="M688.633 493.25H685.076V452.09H688.633V493.25Z" fill="white"/>
<path d="M0 478.104V474.495L41.1794 467.237V470.846L0 478.104Z" fill="#BADFA4"/>
<path d="M101.799 474.448H60.6201V470.895H101.799V474.448Z" fill="#BADFA4"/>
<path d="M628.566 493.25H625.01V452.09H628.566V493.25Z" fill="white"/>
<path d="M567.997 493.25L560.736 452.09H564.347L571.608 493.25H567.997Z" fill="white"/>
<path d="M511.153 493.25L496.165 452.09H499.948L514.937 493.25H511.153Z" fill="white"/>
<path d="M454.765 493.25L430.99 452.09H435.095L458.87 493.25H454.765Z" fill="white"/>
<path d="M399.272 493.25L364.719 452.09H369.36L403.913 493.25H399.272Z" fill="#BADFA4"/>
<path d="M344.279 492.26L303.099 457.722V453.082L344.279 487.62V492.26Z" fill="#BADFA4"/>
<path d="M283.661 486.603L242.482 462.839V458.735L283.661 482.499V486.603Z" fill="#BADFA4"/>
<path d="M223.037 482.051L181.859 467.07V463.288L223.037 478.269V482.051Z" fill="#BADFA4"/>
<path d="M162.418 478.104L121.238 470.846V467.237L162.418 474.495V478.104Z" fill="#BADFA4"/>
<path d="M628.011 428.665H624.455V387.504H628.011V428.665Z" fill="white"/>
<path d="M681.416 428.665L688.678 387.504H692.287L685.026 428.665H681.416Z" fill="white"/>
<path d="M41.1794 409.863H0V406.309H41.1794V409.863Z" fill="#BADFA4"/>
<path d="M567.949 428.665H564.393V387.504H567.949V428.665Z" fill="white"/>
<path d="M507.373 428.665L500.112 387.504H503.723L510.983 428.665H507.373Z" fill="white"/>
<path d="M450.53 428.665L435.542 387.504H439.325L454.314 428.665H450.53Z" fill="white"/>
<path d="M394.149 428.665L370.374 387.504H374.48L398.254 428.665H394.149Z" fill="#BADFA4"/>
<path d="M338.645 428.665L304.091 387.504H308.733L343.286 428.665H338.645Z" fill="#BADFA4"/>
<path d="M283.661 427.674L242.482 393.136V388.497L283.661 423.035V427.674Z" fill="#BADFA4"/>
<path d="M223.037 422.021L181.859 398.257V394.153L223.037 417.917V422.021Z" fill="#BADFA4"/>
<path d="M162.418 417.466L121.238 402.485V398.703L162.418 413.684V417.466Z" fill="#BADFA4"/>
<path d="M101.799 413.519L60.6201 406.261V402.652L101.799 409.91V413.519Z" fill="#BADFA4"/>
<path d="M567.394 364.079H563.838V322.919H567.394V364.079Z" fill="white"/>
<path d="M620.796 364.079L628.056 322.919H631.667L624.406 364.079H620.796Z" fill="white"/>
<path d="M677.465 364.079L692.454 322.919H696.237L681.249 364.079H677.465Z" fill="white"/>
<path d="M507.328 364.079H503.772V322.919H507.328V364.079Z" fill="white"/>
<path d="M446.754 364.079L439.493 322.919H443.103L450.364 364.079H446.754Z" fill="white"/>
<path d="M389.916 364.079L374.928 322.919H378.712L393.699 364.079H389.916Z" fill="#BADFA4"/>
<path d="M333.525 364.079L309.75 322.919H313.856L337.631 364.079H333.525Z" fill="#BADFA4"/>
<path d="M278.026 364.079L243.473 322.919H248.114L282.668 364.079H278.026Z" fill="#BADFA4"/>
<path d="M223.037 363.088L181.859 328.55V323.911L223.037 358.449V363.088Z" fill="#BADFA4"/>
<path d="M162.418 357.431L121.238 333.667V329.563L162.418 353.327V357.431Z" fill="#BADFA4"/>
<path d="M101.799 352.88L60.6201 337.899V334.117L101.799 349.098V352.88Z" fill="#BADFA4"/>
<path d="M41.1794 348.933L0 341.675V338.066L41.1794 345.324V348.933Z" fill="#BADFA4"/>
<path d="M506.772 299.498H503.215V258.337H506.772V299.498Z" fill="white"/>
<path d="M560.181 299.498L567.442 258.337H571.053L563.791 299.498H560.181Z" fill="white"/>
<path d="M616.847 299.498L631.835 258.337H635.619L620.631 299.498H616.847Z" fill="white"/>
<path d="M672.915 299.498L696.689 258.337H700.794L677.019 299.498H672.915Z" fill="white"/>
<path d="M446.708 299.498H443.152V258.337H446.708V299.498Z" fill="white"/>
<path d="M386.137 299.498L378.877 258.337H382.487L389.748 299.498H386.137Z" fill="#BADFA4"/>
<path d="M329.292 299.498L314.304 258.337H318.088L333.076 299.498H329.292Z" fill="#BADFA4"/>
<path d="M272.906 299.498L249.132 258.337H253.237L277.012 299.498H272.906Z" fill="#BADFA4"/>
<path d="M217.407 299.498L182.854 258.337H187.495L222.048 299.498H217.407Z" fill="#BADFA4"/>
<path d="M162.418 298.505L121.238 263.968V259.329L162.418 293.867V298.505Z" fill="#BADFA4"/>
<path d="M101.799 292.85L60.6201 269.087V264.983L101.799 288.746V292.85Z" fill="#BADFA4"/>
<path d="M41.1794 288.299L0 273.318V269.536L41.1794 284.517V288.299Z" fill="#BADFA4"/>
<path d="M446.154 234.914H442.598V193.753H446.154V234.914Z" fill="white"/>
<path d="M499.557 234.914L506.818 193.754H510.428L503.168 234.914H499.557Z" fill="white"/>
<path d="M556.232 234.914L571.22 193.754H575.003L560.016 234.914H556.232Z" fill="white"/>
<path d="M612.293 234.914L636.068 193.754H640.174L616.399 234.914H612.293Z" fill="white"/>
<path d="M671.898 234.914H667.256L701.809 193.754H706.45L671.898 234.914Z" fill="white"/>
<path d="M386.09 234.914H382.534V193.753H386.09V234.914Z" fill="#BADFA4"/>
<path d="M325.514 234.914L318.253 193.754H321.864L329.125 234.914H325.514Z" fill="#BADFA4"/>
<path d="M268.674 234.914L253.686 193.754H257.469L272.457 234.914H268.674Z" fill="#BADFA4"/>
<path d="M212.286 234.914L188.512 193.754H192.617L216.391 234.914H212.286Z" fill="#BADFA4"/>
<path d="M156.787 234.914L122.235 193.754H126.875L161.429 234.914H156.787Z" fill="#BADFA4"/>
<path d="M101.799 233.922L60.6201 199.385V194.746L101.799 229.284V233.922Z" fill="#BADFA4"/>
<path d="M41.1794 228.265L0 204.501V200.398L41.1794 224.162V228.265Z" fill="#BADFA4"/>
<path d="M385.535 170.329H381.979V129.169H385.535V170.329Z" fill="#BADFA4"/>
<path d="M438.939 170.329L446.2 129.17H449.81L442.549 170.329H438.939Z" fill="white"/>
<path d="M495.608 170.329L510.596 129.17H514.38L499.392 170.329H495.608Z" fill="white"/>
<path d="M551.677 170.329L575.452 129.17H579.557L555.783 170.329H551.677Z" fill="white"/>
<path d="M611.279 170.329H606.638L641.191 129.17H645.833L611.279 170.329Z" fill="white"/>
<path d="M666.263 169.336V164.697L707.441 130.16V134.799L666.263 169.336Z" fill="white"/>
<path d="M325.468 170.329H321.912V129.169H325.468V170.329Z" fill="#BADFA4"/>
<path d="M264.896 170.329L257.635 129.17H261.246L268.506 170.329H264.896Z" fill="#BADFA4"/>
<path d="M208.05 170.329L193.062 129.17H196.845L211.834 170.329H208.05Z" fill="#BADFA4"/>
<path d="M151.666 170.329L127.89 129.17H131.996L155.771 170.329H151.666Z" fill="#BADFA4"/>
<path d="M96.1654 170.329L61.6118 129.17H66.2533L100.807 170.329H96.1654Z" fill="#BADFA4"/>
<path d="M41.1794 169.337L0 134.8V130.161L41.1794 164.699V169.337Z" fill="#BADFA4"/>
<path d="M323.252 105.746H319.696V64.5856H323.252V105.746Z" fill="#BADFA4"/>
<path d="M376.214 105.746L383.474 64.5866H387.085L379.824 105.746H376.214Z" fill="#BADFA4"/>
<path d="M432.44 105.746L447.428 64.5866H451.212L436.223 105.746H432.44Z" fill="white"/>
<path d="M488.059 105.746L511.833 64.5866H515.939L492.163 105.746H488.059Z" fill="white"/>
<path d="M547.218 105.746H542.577L577.131 64.5866H581.772L547.218 105.746Z" fill="white"/>
<path d="M601.761 104.756V100.116L642.94 65.5791V70.2185L601.761 104.756Z" fill="white"/>
<path d="M661.938 99.1004V94.9973L703.117 71.2335V75.3365L661.938 99.1004Z" fill="white"/>
<path d="M263.074 105.746H259.518V64.5856H263.074V105.746Z" fill="#BADFA4"/>
<path d="M202.945 105.746L195.684 64.5866H199.294L206.555 105.746H202.945Z" fill="#BADFA4"/>
<path d="M146.546 105.746L131.558 64.5866H135.342L150.33 105.746H146.546Z" fill="#BADFA4"/>
<path d="M90.6022 105.746L66.8276 64.5866H70.9335L94.7081 105.746H90.6022Z" fill="#BADFA4"/>
<path d="M35.5445 105.746L0.990845 64.5863H5.63232L40.1859 105.746H35.5445Z" fill="#BADFA4"/>
<path d="M264.293 41.1609H260.737V0.000236511H264.293V41.1609Z" fill="#BADFA4"/>
<path d="M317.696 41.1609L324.957 0.00125504H328.568L321.307 41.1609H317.696Z" fill="#BADFA4"/>
<path d="M374.369 41.1609L389.357 0.00125504H393.14L378.153 41.1609H374.369Z" fill="#BADFA4"/>
<path d="M430.435 41.1609L454.21 0.00125504H458.315L434.54 41.1609H430.435Z" fill="white"/>
<path d="M490.036 41.1609H485.395L519.949 0.00125504H524.589L490.036 41.1609Z" fill="white"/>
<path d="M545.024 40.1697V35.5303L586.204 0.993259V5.63266L545.024 40.1697Z" fill="white"/>
<path d="M605.642 34.5149V30.4119L646.821 6.64814V10.7512L605.642 34.5149Z" fill="white"/>
<path d="M666.263 29.9635V26.1815L707.441 11.1996V14.9816L666.263 29.9635Z" fill="white"/>
<path d="M204.228 41.1609H200.672V0.000236511H204.228V41.1609Z" fill="#BADFA4"/>
<path d="M143.652 41.1609L136.392 0.00125504H140.002L147.263 41.1609H143.652Z" fill="#BADFA4"/>
<path d="M86.8144 41.1609L71.8267 0.00125504H75.6104L90.5981 41.1609H86.8144Z" fill="#BADFA4"/>
<path d="M30.4246 41.1609L6.65002 0.00123978H10.7549L34.5305 41.1609H30.4246Z" fill="#BADFA4"/>
</svg>
