<svg width="542" height="534" viewBox="0 0 542 534" fill="none" xmlns="http://www.w3.org/2000/svg">
<path d="M450.012 217.531L530.868 355.748L516.948 355.749L436.095 217.533L450.012 217.531Z" fill="#1B1C1F"/>
<path d="M24.9098 178.567L105.765 316.782L91.8461 316.783L10.9923 178.568L24.9098 178.567Z" fill="#1B1C1F"/>
<path d="M451.012 312.73L451.259 472.243L439.275 465.361L439.029 305.847L451.012 312.73Z" fill="#1B1C1F"/>
<path d="M102.586 68.9669L102.832 228.481L90.8489 221.6L90.6024 62.0856L102.586 68.9669Z" fill="#1B1C1F"/>
<path d="M403.781 395.638L323.452 533.857L316.473 521.923L396.801 383.704L403.781 395.638Z" fill="#1B1C1F"/>
<path d="M225.389 12.3916L145.06 150.61L138.081 138.678L218.409 0.45946L225.389 12.3916Z" fill="#1B1C1F"/>
<path d="M320.997 444.14L181.443 524.011L181.417 510.221L320.971 430.348L320.997 444.14Z" fill="#1B1C1F"/>
<path d="M360.44 24.104L220.888 103.975L220.863 90.1856L360.415 10.3127L360.44 24.104Z" fill="#D1FBB7"/>
<path d="M224.805 445.281L63.4014 445.344L70.3505 433.319L231.756 433.255L224.805 445.281Z" fill="#1B1C1F"/>
<path d="M471.515 101.001L310.11 101.064L317.059 89.0386L478.464 88.9753L471.515 101.001Z" fill="#1B1C1F"/>
<path d="M140.898 398.678L1.03884 318.817L13.0903 311.919L152.95 391.781L140.898 398.678Z" fill="#1B1C1F"/>
<path d="M528.77 222.404L388.911 142.543L400.96 135.645L540.82 215.507L528.77 222.404Z" fill="#1B1C1F"/>
</svg>
