<svg width="890" height="93" viewBox="0 0 890 93" fill="none" xmlns="http://www.w3.org/2000/svg">
<path d="M549.941 -6.11578e-05L551.328 -6.10352e-05L551.328 16.2053L549.941 16.2053L549.941 -6.11578e-05Z" fill="#1B1C1F"/>
<path d="M529.104 -6.10352e-05L526.271 16.2053L524.863 16.2053L527.696 -6.11597e-05L529.104 -6.10352e-05Z" fill="#1B1C1F"/>
<path d="M506.995 -6.10352e-05L501.148 16.2053L499.672 16.2053L505.519 -6.11657e-05L506.995 -6.10352e-05Z" fill="#1B1C1F"/>
<path d="M485.122 -6.10352e-05L475.846 16.2053L474.245 16.2053L483.52 -6.11768e-05L485.122 -6.10352e-05Z" fill="#1B1C1F"/>
<path d="M461.868 -6.11952e-05L463.679 -6.10352e-05L450.198 16.2053L448.387 16.2053L461.868 -6.11952e-05Z" fill="#1B1C1F"/>
<path d="M889.554 0.39035L889.554 2.21695L873.488 15.8152L873.488 13.9886L889.554 0.39035Z" fill="#1B1C1F"/>
<path d="M865.904 2.6174L865.904 4.23331L849.838 13.5901L849.838 11.9741L865.904 2.6174Z" fill="#1B1C1F"/>
<path d="M842.253 4.40988L842.253 5.89891L826.187 11.7971L826.187 10.3081L842.253 4.40988Z" fill="#1B1C1F"/>
<path d="M818.603 5.9653L818.603 7.38643L802.538 10.2439L802.538 8.82312L818.603 5.9653Z" fill="#1B1C1F"/>
<path d="M778.887 7.40402L794.953 7.40402L794.953 8.80295L778.887 8.80295L778.887 7.40402Z" fill="#1B1C1F"/>
<path d="M573.374 -6.11578e-05L574.761 -6.10352e-05L574.761 16.2053L573.374 16.2053L573.374 -6.11578e-05Z" fill="#1B1C1F"/>
<path d="M597.006 -6.12856e-05L599.838 16.2053L598.43 16.2053L595.597 -6.14101e-05L597.006 -6.12856e-05Z" fill="#1B1C1F"/>
<path d="M619.182 -6.15522e-05L625.03 16.2053L623.554 16.2053L617.706 -6.16826e-05L619.182 -6.15522e-05Z" fill="#1B1C1F"/>
<path d="M641.181 -6.18552e-05L650.457 16.2053L648.855 16.2053L639.58 -6.19968e-05L641.181 -6.18552e-05Z" fill="#1B1C1F"/>
<path d="M662.833 -6.2227e-05L676.314 16.2053L674.503 16.2053L661.023 -6.23871e-05L662.833 -6.2227e-05Z" fill="#1B1C1F"/>
<path d="M684.286 0.390379L700.351 13.9886L700.351 15.8152L684.286 2.21698L684.286 0.390379Z" fill="#1B1C1F"/>
<path d="M707.936 2.6174L724.002 11.9741L724.002 13.5901L707.936 4.23331L707.936 2.6174Z" fill="#1B1C1F"/>
<path d="M731.587 4.40988L747.652 10.3081L747.652 11.7971L731.587 5.89891L731.587 4.40988Z" fill="#1B1C1F"/>
<path d="M755.237 5.9653L771.302 8.82312L771.302 10.2439L755.237 7.38643L755.237 5.9653Z" fill="#1B1C1F"/>
<path d="M573.591 25.4267L574.978 25.4267L574.978 41.6328L573.591 41.6328L573.591 25.4267Z" fill="#1B1C1F"/>
<path d="M552.755 25.4267L549.922 41.6328L548.513 41.6328L551.346 25.4267L552.755 25.4267Z" fill="#1B1C1F"/>
<path d="M530.646 25.4267L524.798 41.6328L523.322 41.6328L529.17 25.4267L530.646 25.4267Z" fill="#1B1C1F"/>
<path d="M508.772 25.4267L499.497 41.6328L497.895 41.6328L507.171 25.4267L508.772 25.4267Z" fill="#1B1C1F"/>
<path d="M485.519 25.4267L487.329 25.4267L473.849 41.6327L472.038 41.6327L485.519 25.4267Z" fill="#1B1C1F"/>
<path d="M464.066 25.8161L464.066 27.6428L448.001 41.2414L448.001 39.4147L464.066 25.8161Z" fill="#1B1C1F"/>
<path d="M889.554 28.0449L889.554 29.6607L873.488 39.017L873.488 37.4012L889.554 28.0449Z" fill="#1B1C1F"/>
<path d="M865.904 29.8371L865.904 31.3261L849.838 37.2243L849.838 35.7353L865.904 29.8371Z" fill="#1B1C1F"/>
<path d="M842.253 31.3918L842.253 32.8128L826.187 35.6701L826.187 34.2494L842.253 31.3918Z" fill="#1B1C1F"/>
<path d="M802.537 32.8303L818.603 32.8303L818.603 34.2294L802.537 34.2294L802.537 32.8303Z" fill="#1B1C1F"/>
<path d="M597.024 25.4267L598.411 25.4267L598.411 41.6328L597.024 41.6328L597.024 25.4267Z" fill="#1B1C1F"/>
<path d="M620.656 25.4267L623.489 41.6328L622.08 41.6328L619.248 25.4267L620.656 25.4267Z" fill="#1B1C1F"/>
<path d="M642.833 25.4267L648.68 41.6328L647.204 41.6328L641.357 25.4267L642.833 25.4267Z" fill="#1B1C1F"/>
<path d="M664.832 25.4267L674.107 41.6328L672.505 41.6328L663.23 25.4267L664.832 25.4267Z" fill="#1B1C1F"/>
<path d="M686.484 25.4267L699.964 41.6327L698.154 41.6327L684.673 25.4267L686.484 25.4267Z" fill="#1B1C1F"/>
<path d="M707.936 25.8161L724.002 39.4147L724.002 41.2414L707.936 27.6428L707.936 25.8161Z" fill="#1B1C1F"/>
<path d="M731.587 28.0444L747.652 37.4011L747.652 39.017L731.587 29.6603L731.587 28.0444Z" fill="#1B1C1F"/>
<path d="M755.237 29.8371L771.302 35.7353L771.302 37.2243L755.237 31.3261L755.237 29.8371Z" fill="#1B1C1F"/>
<path d="M778.887 31.3918L794.953 34.2494L794.953 35.6701L778.887 32.8128L778.887 31.3918Z" fill="#1B1C1F"/>
<path d="M597.241 50.8554L598.628 50.8554L598.628 67.061L597.241 67.061L597.241 50.8554Z" fill="#1B1C1F"/>
<path d="M576.406 50.8554L573.573 67.061L572.164 67.061L574.997 50.8554L576.406 50.8554Z" fill="#1B1C1F"/>
<path d="M554.296 50.8554L548.449 67.061L546.973 67.061L552.82 50.8554L554.296 50.8554Z" fill="#1B1C1F"/>
<path d="M532.422 50.8554L523.147 67.061L521.546 67.061L530.821 50.8554L532.422 50.8554Z" fill="#1B1C1F"/>
<path d="M509.169 50.8554L510.98 50.8554L497.499 67.061L495.688 67.061L509.169 50.8554Z" fill="#1B1C1F"/>
<path d="M487.716 51.2458L487.716 53.0724L471.651 66.6706L471.651 64.844L487.716 51.2458Z" fill="#1B1C1F"/>
<path d="M464.066 53.4714L464.066 55.0872L448 64.4435L448 62.8277L464.066 53.4714Z" fill="#1B1C1F"/>
<path d="M889.554 55.2653L889.554 56.7546L873.488 62.6537L873.488 61.1645L889.554 55.2653Z" fill="#1B1C1F"/>
<path d="M865.904 56.82L865.904 58.2412L849.838 61.0991L849.838 59.6779L865.904 56.82Z" fill="#1B1C1F"/>
<path d="M826.188 58.2585L842.253 58.2585L842.253 59.6579L826.187 59.6579L826.188 58.2585Z" fill="#1B1C1F"/>
<path d="M620.675 50.8554L622.062 50.8554L622.062 67.061L620.674 67.061L620.675 50.8554Z" fill="#1B1C1F"/>
<path d="M644.306 50.8554L647.139 67.061L645.73 67.061L642.898 50.8554L644.306 50.8554Z" fill="#1B1C1F"/>
<path d="M666.483 50.8554L672.33 67.061L670.854 67.061L665.007 50.8554L666.483 50.8554Z" fill="#1B1C1F"/>
<path d="M688.482 50.8554L697.757 67.061L696.156 67.061L686.88 50.8554L688.482 50.8554Z" fill="#1B1C1F"/>
<path d="M710.134 50.8554L723.615 67.061L721.804 67.061L708.324 50.8554L710.134 50.8554Z" fill="#1B1C1F"/>
<path d="M731.587 51.2458L747.652 64.844L747.652 66.6706L731.587 53.0724L731.587 51.2458Z" fill="#1B1C1F"/>
<path d="M755.237 53.4714L771.302 62.8277L771.302 64.4435L755.237 55.0872L755.237 53.4714Z" fill="#1B1C1F"/>
<path d="M778.887 55.2653L794.953 61.1645L794.953 62.6537L778.887 56.7546L778.887 55.2653Z" fill="#1B1C1F"/>
<path d="M802.538 56.82L818.603 59.6779L818.603 61.0991L802.538 58.2412L802.538 56.82Z" fill="#1B1C1F"/>
<path d="M620.892 76.2827L622.279 76.2827L622.279 92.489L620.892 92.489L620.892 76.2827Z" fill="#1B1C1F"/>
<path d="M600.056 76.2827L597.223 92.489L595.814 92.489L598.647 76.2827L600.056 76.2827Z" fill="#1B1C1F"/>
<path d="M577.947 76.2827L572.099 92.489L570.623 92.489L576.47 76.2827L577.947 76.2827Z" fill="#1B1C1F"/>
<path d="M556.073 76.2827L546.798 92.489L545.196 92.489L554.471 76.2827L556.073 76.2827Z" fill="#1B1C1F"/>
<path d="M532.818 76.2827L534.629 76.2827L521.149 92.4889L519.338 92.4889L532.818 76.2827Z" fill="#1B1C1F"/>
<path d="M511.366 76.6735L511.366 78.5001L495.3 92.0986L495.3 90.2719L511.366 76.6735Z" fill="#1B1C1F"/>
<path d="M487.716 78.9006L487.716 80.5164L471.651 89.8727L471.651 88.2569L487.716 78.9006Z" fill="#1B1C1F"/>
<path d="M464.066 80.6928L464.066 82.1818L448 88.08L448 86.591L464.066 80.6928Z" fill="#1B1C1F"/>
<path d="M889.554 82.2487L889.554 83.6699L873.488 86.5278L873.488 85.1066L889.554 82.2487Z" fill="#1B1C1F"/>
<path d="M849.838 83.6872L865.904 83.6872L865.904 85.0866L849.838 85.0866L849.838 83.6872Z" fill="#1B1C1F"/>
<path d="M644.324 76.2827L645.712 76.2827L645.712 92.489L644.324 92.489L644.324 76.2827Z" fill="#1B1C1F"/>
<path d="M667.956 76.2827L670.789 92.489L669.38 92.489L666.548 76.2827L667.956 76.2827Z" fill="#1B1C1F"/>
<path d="M690.133 76.2827L695.98 92.489L694.505 92.489L688.657 76.2827L690.133 76.2827Z" fill="#1B1C1F"/>
<path d="M712.132 76.2827L721.408 92.489L719.806 92.489L710.531 76.2827L712.132 76.2827Z" fill="#1B1C1F"/>
<path d="M733.784 76.2827L747.265 92.489L745.454 92.489L731.974 76.2827L733.784 76.2827Z" fill="#1B1C1F"/>
<path d="M755.237 76.6735L771.302 90.2719L771.302 92.0986L755.237 78.5001L755.237 76.6735Z" fill="#1B1C1F"/>
<path d="M778.887 78.9006L794.953 88.2571L794.953 89.873L778.887 80.5165L778.887 78.9006Z" fill="#1B1C1F"/>
<path d="M802.538 80.6928L818.603 86.591L818.603 88.08L802.538 82.1818L802.538 80.6928Z" fill="#1B1C1F"/>
<path d="M826.187 82.2475L842.253 85.1054L842.253 86.5265L826.187 83.6687L826.187 82.2475Z" fill="#1B1C1F"/>
<path d="M101.94 -6.11578e-05L103.328 -6.10352e-05L103.328 16.2053L101.94 16.2053L101.94 -6.11578e-05Z" fill="#1B1C1F"/>
<path d="M81.1045 -6.10352e-05L78.2716 16.2053L76.8632 16.2053L79.6961 -6.11597e-05L81.1045 -6.10352e-05Z" fill="#1B1C1F"/>
<path d="M58.9954 -6.10352e-05L53.1481 16.2053L51.6719 16.2053L57.5192 -6.11657e-05L58.9954 -6.10352e-05Z" fill="#1B1C1F"/>
<path d="M37.1218 -6.10352e-05L27.8464 16.2053L26.2445 16.2053L35.52 -6.11768e-05L37.1218 -6.10352e-05Z" fill="#1B1C1F"/>
<path d="M13.8683 -6.11952e-05L15.6787 -6.10352e-05L2.19835 16.2053L0.387513 16.2053L13.8683 -6.11952e-05Z" fill="#1B1C1F"/>
<path d="M441.554 0.39035L441.554 2.21695L425.488 15.8152L425.488 13.9886L441.554 0.39035Z" fill="#1B1C1F"/>
<path d="M417.904 2.6174L417.904 4.23331L401.838 13.5901L401.838 11.9741L417.904 2.6174Z" fill="#1B1C1F"/>
<path d="M394.253 4.40988L394.253 5.89891L378.187 11.7971L378.187 10.3081L394.253 4.40988Z" fill="#1B1C1F"/>
<path d="M370.603 5.9653L370.603 7.38643L354.538 10.2439L354.538 8.82312L370.603 5.9653Z" fill="#1B1C1F"/>
<path d="M330.887 7.40402L346.952 7.40402L346.952 8.80295L330.887 8.80295L330.887 7.40402Z" fill="#1B1C1F"/>
<path d="M125.374 -6.11578e-05L126.761 -6.10352e-05L126.761 16.2053L125.374 16.2053L125.374 -6.11578e-05Z" fill="#1B1C1F"/>
<path d="M149.005 -6.12856e-05L151.838 16.2053L150.43 16.2053L147.597 -6.14101e-05L149.005 -6.12856e-05Z" fill="#1B1C1F"/>
<path d="M171.182 -6.15522e-05L177.03 16.2053L175.554 16.2053L169.706 -6.16826e-05L171.182 -6.15522e-05Z" fill="#1B1C1F"/>
<path d="M193.181 -6.18552e-05L202.457 16.2053L200.855 16.2053L191.58 -6.19968e-05L193.181 -6.18552e-05Z" fill="#1B1C1F"/>
<path d="M214.834 -6.2227e-05L228.314 16.2053L226.503 16.2053L213.023 -6.23871e-05L214.834 -6.2227e-05Z" fill="#1B1C1F"/>
<path d="M236.286 0.390379L252.351 13.9886L252.351 15.8152L236.286 2.21698L236.286 0.390379Z" fill="#1B1C1F"/>
<path d="M259.936 2.6174L276.002 11.9741L276.002 13.5901L259.936 4.23331L259.936 2.6174Z" fill="#1B1C1F"/>
<path d="M283.587 4.40988L299.652 10.3081L299.652 11.7971L283.587 5.89891L283.587 4.40988Z" fill="#1B1C1F"/>
<path d="M307.237 5.9653L323.302 8.82312L323.302 10.2439L307.237 7.38643L307.237 5.9653Z" fill="#1B1C1F"/>
<path d="M125.591 25.4267L126.978 25.4267L126.978 41.6328L125.591 41.6328L125.591 25.4267Z" fill="#1B1C1F"/>
<path d="M104.755 25.4267L101.922 41.6328L100.514 41.6328L103.347 25.4267L104.755 25.4267Z" fill="#1B1C1F"/>
<path d="M82.6458 25.4267L76.7981 41.6328L75.3223 41.6328L81.1696 25.4267L82.6458 25.4267Z" fill="#1B1C1F"/>
<path d="M60.7722 25.4267L51.4968 41.6328L49.8949 41.6328L59.1707 25.4267L60.7722 25.4267Z" fill="#1B1C1F"/>
<path d="M37.5183 25.4267L39.3291 25.4267L25.8484 41.6327L24.0376 41.6327L37.5183 25.4267Z" fill="#1B1C1F"/>
<path d="M16.0662 25.8161L16.0662 27.6428L0.000427779 41.2414L0.000427942 39.4147L16.0662 25.8161Z" fill="#1B1C1F"/>
<path d="M441.554 28.0449L441.554 29.6607L425.488 39.017L425.488 37.4012L441.554 28.0449Z" fill="#1B1C1F"/>
<path d="M417.904 29.8371L417.904 31.3261L401.838 37.2243L401.838 35.7353L417.904 29.8371Z" fill="#1B1C1F"/>
<path d="M394.253 31.3918L394.253 32.8128L378.187 35.6701L378.187 34.2494L394.253 31.3918Z" fill="#1B1C1F"/>
<path d="M354.537 32.8303L370.603 32.8303L370.603 34.2294L354.537 34.2294L354.537 32.8303Z" fill="#1B1C1F"/>
<path d="M149.024 25.4267L150.411 25.4267L150.411 41.6328L149.024 41.6328L149.024 25.4267Z" fill="#1B1C1F"/>
<path d="M172.656 25.4267L175.489 41.6328L174.08 41.6328L171.247 25.4267L172.656 25.4267Z" fill="#1B1C1F"/>
<path d="M194.833 25.4267L200.68 41.6328L199.204 41.6328L193.357 25.4267L194.833 25.4267Z" fill="#1B1C1F"/>
<path d="M216.832 25.4267L226.107 41.6328L224.505 41.6328L215.23 25.4267L216.832 25.4267Z" fill="#1B1C1F"/>
<path d="M238.484 25.4267L251.964 41.6327L250.154 41.6327L236.673 25.4267L238.484 25.4267Z" fill="#1B1C1F"/>
<path d="M259.936 25.8161L276.002 39.4147L276.002 41.2414L259.936 27.6428L259.936 25.8161Z" fill="#1B1C1F"/>
<path d="M283.587 28.0444L299.652 37.4011L299.652 39.017L283.587 29.6603L283.587 28.0444Z" fill="#1B1C1F"/>
<path d="M307.237 29.8371L323.302 35.7353L323.302 37.2243L307.237 31.3261L307.237 29.8371Z" fill="#1B1C1F"/>
<path d="M330.887 31.3918L346.953 34.2494L346.953 35.6701L330.887 32.8128L330.887 31.3918Z" fill="#1B1C1F"/>
<path d="M149.241 50.8554L150.628 50.8554L150.628 67.061L149.241 67.061L149.241 50.8554Z" fill="#1B1C1F"/>
<path d="M128.406 50.8554L125.573 67.061L124.164 67.061L126.997 50.8554L128.406 50.8554Z" fill="#1B1C1F"/>
<path d="M106.296 50.8554L100.449 67.061L98.9726 67.061L104.82 50.8554L106.296 50.8554Z" fill="#1B1C1F"/>
<path d="M84.4226 50.8554L75.1471 67.061L73.5457 67.061L82.8211 50.8554L84.4226 50.8554Z" fill="#1B1C1F"/>
<path d="M61.1687 50.8554L62.9795 50.8554L49.4988 67.061L47.6883 67.061L61.1687 50.8554Z" fill="#1B1C1F"/>
<path d="M39.7163 51.2458L39.7163 53.0724L23.6506 66.6706L23.6506 64.844L39.7163 51.2458Z" fill="#1B1C1F"/>
<path d="M16.0662 53.4714L16.0662 55.0872L0.000428178 64.4435L0.000428322 62.8277L16.0662 53.4714Z" fill="#1B1C1F"/>
<path d="M441.554 55.2653L441.554 56.7546L425.488 62.6537L425.488 61.1645L441.554 55.2653Z" fill="#1B1C1F"/>
<path d="M417.904 56.82L417.904 58.2412L401.838 61.0991L401.838 59.6779L417.904 56.82Z" fill="#1B1C1F"/>
<path d="M378.188 58.2585L394.253 58.2585L394.253 59.6579L378.187 59.6579L378.188 58.2585Z" fill="#1B1C1F"/>
<path d="M172.674 50.8554L174.062 50.8554L174.062 67.061L172.674 67.061L172.674 50.8554Z" fill="#1B1C1F"/>
<path d="M196.306 50.8554L199.139 67.061L197.731 67.061L194.898 50.8554L196.306 50.8554Z" fill="#1B1C1F"/>
<path d="M218.483 50.8554L224.33 67.061L222.854 67.061L217.007 50.8554L218.483 50.8554Z" fill="#1B1C1F"/>
<path d="M240.482 50.8554L249.757 67.061L248.156 67.061L238.88 50.8554L240.482 50.8554Z" fill="#1B1C1F"/>
<path d="M262.135 50.8554L275.615 67.061L273.804 67.061L260.324 50.8554L262.135 50.8554Z" fill="#1B1C1F"/>
<path d="M283.587 51.2458L299.652 64.844L299.652 66.6706L283.587 53.0724L283.587 51.2458Z" fill="#1B1C1F"/>
<path d="M307.237 53.4714L323.302 62.8277L323.302 64.4435L307.237 55.0872L307.237 53.4714Z" fill="#1B1C1F"/>
<path d="M330.887 55.2653L346.952 61.1645L346.952 62.6537L330.887 56.7546L330.887 55.2653Z" fill="#1B1C1F"/>
<path d="M354.538 56.82L370.603 59.6779L370.603 61.0991L354.538 58.2412L354.538 56.82Z" fill="#1B1C1F"/>
<path d="M172.891 76.2827L174.279 76.2827L174.279 92.489L172.891 92.489L172.891 76.2827Z" fill="#1B1C1F"/>
<path d="M152.056 76.2827L149.223 92.489L147.814 92.489L150.647 76.2827L152.056 76.2827Z" fill="#1B1C1F"/>
<path d="M129.947 76.2827L124.099 92.489L122.623 92.489L128.47 76.2827L129.947 76.2827Z" fill="#1B1C1F"/>
<path d="M108.073 76.2827L98.7976 92.489L97.1958 92.489L106.471 76.2827L108.073 76.2827Z" fill="#1B1C1F"/>
<path d="M84.8186 76.2827L86.6294 76.2827L73.149 92.4889L71.3382 92.4889L84.8186 76.2827Z" fill="#1B1C1F"/>
<path d="M63.366 76.6735L63.366 78.5001L47.3003 92.0986L47.3003 90.2719L63.366 76.6735Z" fill="#1B1C1F"/>
<path d="M39.7163 78.9006L39.7163 80.5164L23.6506 89.8727L23.6506 88.2569L39.7163 78.9006Z" fill="#1B1C1F"/>
<path d="M16.0662 80.6928L16.0662 82.1818L0.000426589 88.08L0.000426722 86.591L16.0662 80.6928Z" fill="#1B1C1F"/>
<path d="M441.554 82.2487L441.554 83.6699L425.488 86.5278L425.488 85.1066L441.554 82.2487Z" fill="#1B1C1F"/>
<path d="M401.838 83.6872L417.904 83.6872L417.904 85.0866L401.838 85.0866L401.838 83.6872Z" fill="#1B1C1F"/>
<path d="M196.325 76.2827L197.712 76.2827L197.712 92.489L196.325 92.489L196.325 76.2827Z" fill="#1B1C1F"/>
<path d="M219.956 76.2827L222.789 92.489L221.38 92.489L218.547 76.2827L219.956 76.2827Z" fill="#1B1C1F"/>
<path d="M242.133 76.2827L247.98 92.489L246.505 92.489L240.657 76.2827L242.133 76.2827Z" fill="#1B1C1F"/>
<path d="M264.132 76.2827L273.408 92.489L271.806 92.489L262.531 76.2827L264.132 76.2827Z" fill="#1B1C1F"/>
<path d="M285.784 76.2827L299.265 92.489L297.454 92.489L283.974 76.2827L285.784 76.2827Z" fill="#1B1C1F"/>
<path d="M307.237 76.6735L323.302 90.2719L323.302 92.0986L307.237 78.5001L307.237 76.6735Z" fill="#1B1C1F"/>
<path d="M330.887 78.9006L346.952 88.2571L346.952 89.873L330.887 80.5165L330.887 78.9006Z" fill="#1B1C1F"/>
<path d="M354.538 80.6928L370.603 86.591L370.603 88.08L354.538 82.1818L354.538 80.6928Z" fill="#1B1C1F"/>
<path d="M378.187 82.2475L394.253 85.1054L394.253 86.5265L378.187 83.6687L378.187 82.2475Z" fill="#1B1C1F"/>
</svg>
